<svg width="141" height="121" viewBox="0 0 141 121" fill="none" xmlns="http://www.w3.org/2000/svg">
<path opacity="0.1" d="M105.585 1.11235L8.36691 30.2993C2.65774 32.0133 -0.59935 38.077 1.12088 43.8069L21.9267 113.109C23.6411 118.82 29.6846 122.112 35.4145 120.392L132.633 91.2051C138.328 89.4954 141.604 83.4431 139.879 77.6975L119.073 8.39532C117.359 2.68483 111.315 -0.607876 105.585 1.11235ZM106.235 8.47235L73.413 69.6569L11.9125 36.7897L106.235 8.47235ZM28.4072 109.599L8.45305 43.134L51.6716 66.2308L28.4072 109.599ZM34.7653 113.032L58.0443 69.6365L73.1975 77.7345C74.9517 78.672 77.1304 78.0131 78.0707 76.2599L86.0241 61.4336L129.121 84.7046L34.7653 113.032ZM132.537 78.3371L89.4399 55.0661L112.593 11.9052L132.537 78.3371Z" fill="#F2EDDC"/>
</svg>
