<svg width="44" height="44" viewBox="0 0 44 44" fill="none" xmlns="http://www.w3.org/2000/svg">
<path d="M20.2118 0.08128C9.56335 0.925887 0.964268 9.45239 0.0802495 20.1105C-1.00468 32.9003 8.92043 43.6389 21.3771 44.0008V38.9734C21.3771 35.8765 19.6894 33.0209 16.957 31.5731C13.3003 29.6425 10.8492 25.6206 11.2108 21.116C11.6127 15.8071 15.9524 11.5438 21.2967 11.1818C27.5652 10.7796 32.8291 15.7668 32.8291 21.9606C32.8291 26.1032 30.4985 29.6827 27.083 31.5328C24.3104 33.021 22.6629 35.957 22.6629 39.1343V44.0008C34.5168 43.6791 44.0401 33.946 44.0401 22.0008C43.9999 9.29152 33.1506 -0.964424 20.2118 0.08128Z" fill="url(#paint0_linear_359_6551)"/>
<defs>
<linearGradient id="paint0_linear_359_6551" x1="-0.000110826" y1="22.0061" x2="43.986" y2="22.0061" gradientUnits="userSpaceOnUse">
<stop stop-color="#4F5955"/>
<stop offset="0.500249" stop-color="#929A97"/>
<stop offset="1" stop-color="#4F5955"/>
</linearGradient>
</defs>
</svg>
